<?xml version="1.0" encoding="utf-8"?>
<!-- Generator: Adobe Illustrator 22.0.1, SVG Export Plug-In . SVG Version: 6.00 Build 0)  -->
<svg version="1.1" id="Layer_1" xmlns="http://www.w3.org/2000/svg" xmlns:xlink="http://www.w3.org/1999/xlink" x="0px" y="0px"
	 viewBox="0 0 306.9 445.9" style="enable-background:new 0 0 306.9 445.9;" xml:space="preserve">
<style type="text/css">
	.st0{font-family:'Kalam-Bold';}
	.st1{font-size:50px;}
</style>
<title>X - vote</title>
<g>
	<g>
		<path d="M306.9,243.5c-1.1,2.5-2.9,3.5-5,4.6c-4.7,2.4-9.2,5.1-13.8,7.7c-13,7.5-26,15-39,22.5c-13.1,7.7-26.2,15.4-39.3,23.1
			c-12,7-24.1,13.9-36.1,21c-6.6,3.9-13.1,8-19.7,11.8s-13.3,7.6-19.9,11.5c-5.6,3.4-11.5,6.3-16.6,10.4c-0.5,0.3-1,0.4-1.6,0.5
			c-1.2-2.2-2.3-4.4-3.3-6.7c-1.8-5-3.8-9.8-5.9-14.7c-3-7.1-6.2-14-9.2-21.1c-4.3-10.1-8.6-20.3-12.9-30.4s-8.8-20.2-13.1-30.4
			c-7.5-17.5-15.1-35-22.6-52.4c-3-6.9-6.1-13.7-9-20.6c-3.8-9-7.5-18-11.4-26.9c-3.1-7.3-6.5-14.6-9.6-21.9
			c-2-4.7-3.9-9.5-5.8-14.2c-1.7-4-3.3-8-5.1-11.9c-2.2-4.8-4.6-9.5-6.9-14.2c-0.3-0.6-0.6-1.1-0.8-1.7c-0.8-2.3-0.1-3.9,2.2-5.1
			C3.3,84,4,83.8,4.8,83.5c6.3-2.5,12.2-5.6,18.2-8.7c7.1-3.6,14.3-7.1,21.5-10.7c10.7-5.3,21.5-10.7,32.2-16
			c7.2-3.5,14.4-7,21.5-10.6c14.3-7.1,28.6-14.3,42.8-21.5c4.9-2.4,9.7-4.8,14.5-7.4c3.4-1.8,6.7-3.7,10.1-5.5L165,0.4
			c0.6-0.7,1.2-0.3,1.6,0.2c4.3,7.1,8.6,14.2,12.8,21.4c6,10.2,11.9,20.5,17.8,30.7c3.2,5.5,6.4,11.1,9.7,16.6
			c3.5,5.9,7.1,11.7,10.2,17.9c0.7,1.2,1.5,2.3,2.4,3.4c2.6-3.8,3.6-7.9,5.3-11.6c1.8-3.9,3.3-8,5-11.9s3.3-7.7,4.9-11.5
			s3.1-7.7,4.7-11.6s3.1-7.7,4.7-11.5s3.4-7.9,5.1-11.9c1.6-3.8,3.1-7.7,4.6-11.6c3.7-1.2,7.6-1.5,11.3-0.7c6.2,1,12,3.1,17.9,5
			c2.2,0.7,4.1,2.4,6.1,3.6c3.5,2,6.3,4.9,9.1,7.7c0.8,0.7,0.8,1.9,0.1,2.7c-0.1,0.1-0.1,0.1-0.2,0.2c-0.6,0.6-1.3,1-1.1,1.9
			c0.5,2.7-0.8,5-1.7,7.4C293,41.4,291,46,289,50.8c-6,14.3-12,28.6-18,42.9c-3.9,9.3-7.9,18.5-11.7,27.8
			c-3.1,7.5-6.1,15.1-9.2,22.8c2.5,5.3,5.3,10.5,8.4,15.5c3.5,6.1,7,12.2,10.5,18.3c3,5.2,6.2,10.4,9.3,15.6c0.6,1,1,2,1.5,3
			c0.5,1.2,1,2.3,1.7,3.4c5,6.5,8.6,13.8,12.7,20.9c2.5,4.4,5,8.9,7.6,13.3c0.4,0.7,0.8,1.4,1.3,2c0.8,0.8,1.5,1.7,2.1,2.6
			C305.8,240.4,306.4,241.9,306.9,243.5z M120.3,340.9c1.2-0.4,2.4-0.8,3.6-1.4c3.5-1.9,7-3.9,10.4-5.9c10.9-6.5,21.6-13,32.5-19.4
			c6.9-4.1,13.8-8,20.7-12.1c10.7-6.3,21.4-12.7,32.1-19.1c14-8.3,28-16.6,42.1-24.9c6.5-3.8,12.8-7.9,19.5-11.1
			c3.6-1.7,7-3.8,10.5-5.8c0.8-0.6,1.6-1.2,2.4-1.9c-0.9-1.8-1.7-3.6-2.6-5.2c-2.6-4.6-5.2-9.1-7.9-13.7
			c-5.8-9.9-11.6-19.9-17.4-29.8c-3.8-6.5-7.6-13-11.3-19.5c-2.3-4-4.7-8-7-12c-0.6-1.1-1.1-2.4-2.7-2.6c-1.4,1.8-1.8,4-2.6,6
			c-0.5,1.8-1.3,3.6-2.4,5.1c-3.5,4.2-7.3,8.1-10.9,12.1c-3.2,3.6-6.9,6.6-9.8,10.5c-2.1,2.8-4.8,5.1-7.2,7.6
			c-0.7,0.6-1.4,1.3-1.9,2.1c-2.2,5.1-4.3,10.3-6.5,15.4c-0.4,1-0.9,2-1.4,3c-1.3-0.1-2.7-0.1-4,0c-2.2,0.4-4.1-0.5-6.1-1.1
			c-1.2-0.3-1.9-1.4-1.7-2.6c0.2-1.9,0.6-3.8,1.3-5.5c2.5-5.3,3.1-11,3.9-16.7c0.5-3.7,0.1-7.7-0.4-11.5c-0.6-5.7-0.3-11.5-1.7-17.1
			c-0.5-2-0.5-4.1-1.1-6.1c-0.6-1.8-0.4-3.8,0.6-5.5c1.3-2.4,2.5-4.8,3.6-7.3c4.7-10.9,9.3-21.8,13.9-32.7c1.5-3.7,3-7.4,4.4-10.9
			c-0.9-1.3-1.7-2.3-2.4-3.4c-11-18.7-22-37.4-33-56.2c-4.6-7.9-9-15.8-13.5-23.8c-0.6-1.1-1.1-2.3-2.8-2.7c-0.7,0.3-1.6,0.6-2.4,1
			l-33.9,16.9L96.1,49.2c-19.3,9.6-38.6,19.3-57.9,28.9c-7.1,3.6-14.3,7.1-21.5,10.6c-1.5,0.8-3.1,1.5-4.2,3c0.6,1.5,1,2.8,1.6,4.2
			c2.3,5.4,4.7,10.8,7,16.3c1.4,3.2,2.6,6.5,4,9.7c3.7,8.7,7.5,17.3,11.2,26c2.9,6.8,5.6,13.6,8.5,20.3c3.6,8.4,7.3,16.7,10.8,25
			c1.9,4.4,3.6,8.9,5.6,13.3c4.5,10.3,9,20.5,13.5,30.7c8.4,19.2,16.7,38.4,25,57.6c5.4,12.5,10.7,25,16.1,37.4
			C117.1,335.2,118.2,338.2,120.3,340.9z M211.1,159.9c-1.2,0-2.3-0.7-2.9-1.7c-1.1-1.7-2.3-3.4-3.6-5.1s-2.9-1.3-4.4-0.9
			s-1.6,1.8-1.6,3.1c0,1.3,0,2.6,0.2,3.8c0.6,3.3,1.2,6.6,1.9,9.9c1.2,6,1.1,12,1.5,18.1c0.2,3,0.1,6.1,0.2,9.1
			c0.1,0.6,0.4,1.1,0.7,1.7c0.5-0.2,1-0.5,1.5-0.8c0.8-0.8,1.6-1.6,2.3-2.4c1.9-2.1,3.9-4.2,5.8-6.3c6.4-6.9,12.7-13.8,19-20.8
			c0.6-0.8,1.1-1.7,1.5-2.6c-2.1-3.5-4.6-1.5-7.1-0.8c-0.8-1.4-1.5-2.6-2-3.9c-0.6-1.3-1.6-2.4-2.9-3c-2.9-1.6-5.5-1.1-8,0.8
			C212.3,158.7,211.7,159.4,211.1,159.9L211.1,159.9z M231.2,155.1c0.3-1.3,0.7-2.8,1.1-4.3c0.3-1.4,0.7-2.8,1.3-4.1
			c2.5-5.7,5.1-11.3,7.6-17c5.2-12,10.3-24,15.4-36.1c5.1-12.1,10.1-24.2,15.1-36.2c0.7-1.8,1.5-3.5,2.1-5.3
			c0.2-0.7,0.1-1.5-0.3-2.2c-0.6-0.9-1.8-1.2-2.8-0.6c-0.3,0.2-0.6,0.5-0.7,0.8c-1.5,3.2-2.9,6.4-4.2,9.6c-3.7,9-7.4,18-11.1,27
			c-3.2,7.7-6.4,15.3-9.7,23c-4,9.3-8.1,18.4-12,27.7c-1.7,4.1-3.1,8.4-4.8,12.5c-0.6,1.3-0.5,2.8,0.1,4.2c0.3,1.1,1.5,1.7,2.6,1.4
			C230.9,155.3,231,155.2,231.2,155.1L231.2,155.1z M213,147.9c0.6-0.9,1.2-1.9,1.8-2.9c2.3-4.9,4.7-9.8,6.9-14.8
			c4.1-9.5,8-19.1,12.1-28.7c5-11.8,9.9-23.5,14.9-35.3c1.4-3.2,2.8-6.5,4.1-9.7c1.5-3.7,3-7.4,4.4-11.1c0.3-0.7,0.2-1.5-0.1-2.2
			c-0.3-0.5-1.3-0.7-2.1-1.1c-0.5,0.7-0.9,1.5-1.3,2.2c-1.4,3.2-2.8,6.4-4.2,9.7c-3.8,9.3-7.5,18.7-11.4,27.9
			c-6.3,14.8-12.7,29.6-19.2,44.4c-1.6,3.5-2.8,7.1-4.1,10.7c-0.4,1.4-1,2.7-1.8,3.9C210.7,144.1,210.6,144,213,147.9z"/>
		<path d="M166.4,289.2c-3.1-1.3-5.5-2.5-8-3.5c-3.3-1.3-4.1-3.6-2.5-6.8s3.4-6.5,5.1-9.7c0.7-1.1,1.4-2.1,2.2-3.1
			c1.5-1.9,2.6-4.1,3.1-6.5c-3.4-3.1-7.9-4.1-11.7-6.4c-3.7-2.2-7.6-3.9-11.3-5.8c-0.2-1.7,0.1-3.4,0.9-4.9c1.8-2.8,3.1-6,4-9.2
			c0.2-0.7,0.9-1.2,1.5-2c3.8,3,7.4,5.9,11.6,7.9s7.7,5,12.3,6.8c5.6-7.3,10.2-15.4,13.5-23.9c4.4,1.9,8.6,3.7,13.1,3.7
			c1,1.8-0.1,2.9-0.9,4.1c-1.8,2.8-3.9,5.5-5.5,8.4c-2.4,4.3-4.5,8.8-6.8,13.3c3.5,2.9,7.6,4.3,11.7,5.4s8.2,2.4,12.3,3.6
			c0.1,0.2,0.3,0.6,0.3,0.8c-2.3,5.6-4.8,11.1-7.7,16.5c-2.8-1.4-5.3-2.6-7.9-3.8s-4.7-3.1-7.5-4c-2.6-0.8-4.9-2.9-7.4-4.5
			c-0.9,0.8-1.7,1.6-2.4,2.6c-2.7,4.5-5.5,9-7.2,14c-0.8,2.1-1.8,4.1-3.1,5.9C167.8,288.7,166.9,288.9,166.4,289.2z"/>
	</g>
</g>
<text transform="matrix(0.8956 -0.4449 0.4449 0.8956 45.0645 138.0693)" class="st0 st1">Subang</text>
</svg>
