<?xml version="1.0" encoding="utf-8"?>
<!-- Generator: Adobe Illustrator 21.0.0, SVG Export Plug-In . SVG Version: 6.00 Build 0)  -->
<svg version="1.1" id="Layer_1" xmlns="http://www.w3.org/2000/svg" xmlns:xlink="http://www.w3.org/1999/xlink" x="0px" y="0px"
	 viewBox="0 0 100 237.2" style="enable-background:new 0 0 100 237.2;" xml:space="preserve">
<g>
	<path d="M9.1,146.4c4.4-0.3,7.8-4,7.5-8.5c-0.4-6.6-0.6-12.7-0.6-18.2c0-24.2,3.5-37.8,7-44.9v150c0,6.8,5.5,12.4,12.4,12.4
		c6.8,0,12.4-5.5,12.4-12.4v-90.3h4.6v90.3c0,6.8,5.5,12.4,12.4,12.4c6.8,0,12.4-5.5,12.4-12.4v-150c0.6,1.2,1.2,2.6,1.8,4.2
		c2.8,7.8,5.2,20.6,5.2,40.6c0,5.5-0.2,11.6-0.6,18.2c-0.3,4.4,3.1,8.2,7.5,8.5c0.2,0,0.3,0,0.5,0c4.2,0,7.7-3.3,8-7.5
		c0.4-6.9,0.6-13.3,0.6-19.2c0-30.2-4.9-46.9-11.4-56.9c-3.3-5-7.1-8.2-10.7-10c-3.3-1.7-6.3-2.1-8.1-2.1c-0.2,0-0.3,0-0.5,0H30.7
		c-0.2,0-0.3,0-0.5,0c-1.8,0-4.8,0.4-8.1,2.1c-5.4,2.7-11.2,8.5-15.2,18.8C2.8,82.1,0,97.1,0,119.7c0,5.9,0.2,12.2,0.6,19.2
		c0.2,4.3,3.8,7.5,8,7.5C8.7,146.4,8.9,146.4,9.1,146.4z"/>
	<circle cx="50" cy="22.5" r="22.5"/>
</g>
</svg>
