<?xml version="1.0" encoding="utf-8"?>
<!-- Generator: Adobe Illustrator 21.0.0, SVG Export Plug-In . SVG Version: 6.00 Build 0)  -->
<svg version="1.1" id="Layer_1" xmlns="http://www.w3.org/2000/svg" xmlns:xlink="http://www.w3.org/1999/xlink" x="0px" y="0px"
	 viewBox="0 0 100 237.2" style="enable-background:new 0 0 100 237.2;" xml:space="preserve">
<g>
	<ellipse transform="matrix(0.2268 -0.9739 0.9739 0.2268 16.7541 66.1023)" cx="50" cy="22.5" rx="22.5" ry="22.5"/>
	<path d="M8.6,146.6c0.2,0,0.3,0,0.5,0c4.4-0.3,7.8-4,7.5-8.5c-0.4-6.6-0.6-12.7-0.6-18.2c0-24.2,3.5-37.8,7-44.9v32.9v18.9v98
		c0,6.8,5.5,12.4,12.4,12.4c6.8,0,12.4-5.5,12.4-12.4v-90.3h4.6v90.3c0,6.8,5.5,12.4,12.4,12.4c6.8,0,12.4-5.5,12.4-12.4v-98v-18.9
		V75.1c0.6,1.2,1.2,2.6,1.8,4.2c2.8,7.8,5.2,20.6,5.2,40.6c0,5.5-0.2,11.6-0.6,18.2c-0.3,4.4,3.1,8.2,7.5,8.5c0.2,0,0.3,0,0.5,0
		c4.2,0,7.7-3.3,8-7.5c0.4-6.9,0.6-13.3,0.6-19.2c0-30.2-4.9-46.9-11.4-56.9c-3.3-5-7.1-8.2-10.7-10c-2.3-1.2-4.4-1.7-6.1-2
		c-0.8-0.3-1.6-0.4-2.4-0.4H30.7c-0.9,0-1.7,0.1-2.4,0.4c-1.7,0.2-3.8,0.8-6.1,2c-5.4,2.7-11.2,8.5-15.2,18.8
		C2.8,82.3,0,97.3,0,119.9c0,5.9,0.2,12.2,0.6,19.2C0.8,143.4,4.4,146.6,8.6,146.6z M50.1,123.2l-2.4-3l-7.1-9l1.8-13.5l3.6-26.9
		c1.3,0.5,2.7,0.7,4,0.7h0h0c1.4,0,2.7-0.3,4-0.7l3.6,26.8l1.8,13.6l-7.3,9.2L50.1,123.2z M46.3,58.7h3.8h3.8l1.9,7.5l-0.3,0.5
		c-1.6,1.3-3.5,2-5.4,2c-1.9,0-3.8-0.7-5.4-2l-0.3-0.5L46.3,58.7z"/>
</g>
</svg>
